<svg width="194" height="49" viewBox="0 0 194 49" fill="none" xmlns="http://www.w3.org/2000/svg">
<g clip-path="url(#clip0_1_7)">
<path d="M40 24.5C40 22.0128 36.2825 19.8302 30.6879 18.5902C31.507 16.4846 31.5695 14.7971 30.6879 13.9094C29.8026 13.0253 28.076 13.0877 25.9418 13.9314C24.7002 8.27109 22.5034 4.5 20.0018 4.5C17.5002 4.5 15.2852 8.29677 14.0509 13.9938C11.8395 13.0913 10.0652 12.9923 9.14685 13.9094C8.25788 14.8008 8.324 16.5029 9.15787 18.6233C3.64772 19.8705 0 22.0348 0 24.5C0 26.9652 3.70649 29.1625 9.29011 30.4061C8.33134 32.6805 8.21012 34.5147 9.14685 35.4501C10.0726 36.3782 11.8799 36.2645 14.1243 35.3327C15.3696 40.8463 17.537 44.5 20.0018 44.5C22.4667 44.5 24.6157 40.8756 25.8646 35.3988C28.0356 36.2718 29.7805 36.3562 30.6842 35.4501C31.6172 34.5183 31.4997 32.6988 30.5556 30.4428C36.2237 29.2102 40.0037 27.0092 40.0037 24.5037L40 24.5Z" fill="#6366F1"/>
<path d="M27 25C22.0316 26.1238 21.1212 27.0316 20 32C18.8762 27.0316 17.9684 26.1212 13 25C17.9684 23.8762 18.8788 22.9684 20 18C21.1238 22.9684 22.0316 23.8788 27 25Z" fill="white"/>
</g>
<path d="M50.368 36V14.24H64.448V18.08H54.784V23.168H62.528V26.944H54.784V32.16H64.448V36H50.368ZM73.4993 19.616C74.6086 19.616 76.0273 19.7867 77.7553 20.128L78.6193 20.32L78.4913 23.712C76.8059 23.5413 75.5579 23.456 74.7473 23.456C73.2753 23.456 72.2939 23.776 71.8033 24.416C71.3339 25.0347 71.0993 26.2187 71.0993 27.968C71.0993 29.7173 71.3339 30.9227 71.8033 31.584C72.2939 32.224 73.2859 32.544 74.7793 32.544L78.4913 32.288L78.6193 35.712C76.3366 36.16 74.5979 36.384 73.4033 36.384C71.0353 36.384 69.3286 35.7227 68.2833 34.4C67.2593 33.056 66.7473 30.912 66.7473 27.968C66.7473 25.024 67.2806 22.9013 68.3473 21.6C69.4139 20.2773 71.1313 19.616 73.4993 19.616ZM86.0845 36H81.7965V13.6H86.0845V20.768C87.5565 20 88.8792 19.616 90.0525 19.616C92.1858 19.616 93.6578 20.2453 94.4685 21.504C95.2792 22.7627 95.6845 24.704 95.6845 27.328V36H91.3965V27.424C91.3965 26.08 91.2365 25.088 90.9165 24.448C90.5965 23.7867 89.9565 23.456 88.9965 23.456C88.1645 23.456 87.3325 23.584 86.5005 23.84L86.0845 23.968V36ZM100.348 21.824C101.479 20.352 103.367 19.616 106.012 19.616C108.657 19.616 110.545 20.352 111.676 21.824C112.807 23.2747 113.372 25.3227 113.372 27.968C113.372 33.5787 110.919 36.384 106.012 36.384C101.105 36.384 98.652 33.5787 98.652 27.968C98.652 25.3227 99.2173 23.2747 100.348 21.824ZM103.644 31.584C104.092 32.352 104.881 32.736 106.012 32.736C107.143 32.736 107.921 32.352 108.348 31.584C108.796 30.816 109.02 29.6107 109.02 27.968C109.02 26.3253 108.796 25.1307 108.348 24.384C107.921 23.6373 107.143 23.264 106.012 23.264C104.881 23.264 104.092 23.6373 103.644 24.384C103.217 25.1307 103.004 26.3253 103.004 27.968C103.004 29.6107 103.217 30.816 103.644 31.584ZM130.691 35.648C128.43 36.1387 126.393 36.384 124.579 36.384C122.766 36.384 121.315 36.16 120.227 35.712C119.139 35.264 118.286 34.5493 117.667 33.568C117.049 32.5867 116.622 31.4347 116.387 30.112C116.153 28.7893 116.035 27.1253 116.035 25.12C116.035 20.9173 116.622 17.9947 117.795 16.352C118.99 14.688 121.177 13.856 124.355 13.856C126.19 13.856 128.313 14.144 130.723 14.72L130.595 18.24C128.483 17.92 126.723 17.76 125.315 17.76C123.929 17.76 122.937 17.952 122.339 18.336C121.742 18.6987 121.294 19.4027 120.995 20.448C120.718 21.4933 120.579 23.2747 120.579 25.792C120.579 28.3093 120.867 30.0587 121.443 31.04C122.041 32 123.214 32.48 124.963 32.48C126.734 32.48 128.611 32.3307 130.595 32.032L130.691 35.648ZM138.69 28.704V36H134.274V14.24H142.722C147.842 14.24 150.402 16.6293 150.402 21.408C150.402 24.2453 149.336 26.336 147.202 27.68L150.306 36H145.474L142.946 28.704H138.69ZM142.786 24.928C143.832 24.928 144.61 24.608 145.122 23.968C145.634 23.328 145.89 22.4853 145.89 21.44C145.89 20.3947 145.613 19.5627 145.058 18.944C144.525 18.3253 143.746 18.016 142.722 18.016H138.69V24.928H142.786ZM158.342 28.736C158.342 31.2747 159.633 32.544 162.214 32.544C164.795 32.544 166.086 31.2747 166.086 28.736V14.24H170.502V28.64C170.502 31.3067 169.809 33.2693 168.422 34.528C167.057 35.7653 164.987 36.384 162.214 36.384C159.441 36.384 157.361 35.7653 155.974 34.528C154.609 33.2693 153.926 31.3067 153.926 28.64V14.24H158.342V28.736ZM182.384 36H175.056V14.24H182.384C184.261 14.24 185.808 14.4427 187.024 14.848C188.24 15.232 189.178 15.8827 189.84 16.8C190.522 17.696 190.992 18.7627 191.248 20C191.504 21.216 191.632 22.8053 191.632 24.768C191.632 26.7307 191.514 28.3627 191.28 29.664C191.045 30.944 190.597 32.096 189.936 33.12C189.296 34.1227 188.357 34.8587 187.12 35.328C185.882 35.776 184.304 36 182.384 36ZM187.024 27.36C187.066 26.6773 187.088 25.7387 187.088 24.544C187.088 23.328 187.045 22.3573 186.96 21.632C186.874 20.9067 186.672 20.2453 186.352 19.648C186.032 19.0507 185.552 18.6453 184.912 18.432C184.293 18.1973 183.45 18.08 182.384 18.08H179.472V32.16H182.384C183.984 32.16 185.146 31.7547 185.872 30.944C186.49 30.2827 186.874 29.088 187.024 27.36Z" fill="#18181B"/>
<defs>
<clipPath id="clip0_1_7">
<rect width="40" height="40" fill="white" transform="translate(0 4.5)"/>
</clipPath>
</defs>
</svg>
